# xmcd
#
# Track frame offsets: 
#        150
#        12860
#        23900
#        37705
#        54303
#        70330
#        87210
#        107150
#        123070
#        140483
#        155210
#        167980
#        186093
#        202433
#
# Disc length: 2901 seconds
#
# Revision: 2
# Processed by: cddbd v1.5.2PL0 Copyright (c) Steve Scherf et al.
# Submitted via: ExactAudioCopy v0.95a5
#
DISCID=bf0b530e
DTITLE=Various Artist - HOT HITS COUNTRY VOL 29
DYEAR=1900
DGENRE=Country
TTITLE0=TOBY KEITH - Little Less Talk and A Lot More Action
TTITLE1=GEORGE JONES - High Tech Redneck
TTITLE2=COLLIN RAYE - That's My Story
TTITLE3=BROOKS and DUNN - Rock My World (Little Country Girl)
TTITLE4=SUZY BOGGUSS - Hey Cinderella
TTITLE5=SHENANDOAH - I Want To Be Loved Like That
TTITLE6=JOHN MICHAEL MONTGOMERY - I Swear
TTITLE7=DOUG STONE - I Never Knew Love
TTITLE8=GEORGE STRAIT - I'd Like To Have That One Back
TTITLE9=REBA MCENTIRE - They Asked About You
TTITLE10=CLAY WALKER - Live Until I Die
TTITLE11=STEVE WARINER - Drivin' and Cryin'
TTITLE12=JOE DIFFIE - John Deere Green
TTITLE13=CONFEDERATE RAILROAD - She Never Cried
EXTD=
EXTT0=Keith - Toby
EXTT1=Jones - George
EXTT2=Raye - Collin
EXTT3=Brooks and Dunn
EXTT4=Bogguss - Suzy
EXTT5=Shenandoah
EXTT6=Montgomery - John Michael
EXTT7=Stone - Doug
EXTT8=Strait - George
EXTT9=McEntire: Reba
EXTT10=Walker - Clay
EXTT11=Wariner - Steve
EXTT12=Diffie - Joe
EXTT13=Confederate Railroad
PLAYORDER=
